<svg width="20" height="20" viewBox="0 0 20 20" fill="none" xmlns="http://www.w3.org/2000/svg">
<path d="M10.5441 13.9546C10.5441 15.0819 11.4815 15.9995 12.6334 15.9995C13.7858 15.9995 14.7231 15.0817 14.7231 13.9546C14.7231 12.8277 13.7857 11.9102 12.6334 11.9102C11.4815 11.9103 10.5441 12.8275 10.5441 13.9546ZM11.865 13.9546C11.865 13.5402 12.2097 13.2029 12.6332 13.2029C13.0567 13.2029 13.4019 13.5402 13.4019 13.9546C13.4019 14.3695 13.0568 14.7068 12.6332 14.7068C12.2097 14.7068 11.865 14.3696 11.865 13.9546Z" fill="#0BC15C"/>
<path d="M1.45154 13.9546C1.45154 15.0819 2.38901 15.9995 3.54131 15.9995C4.6933 15.9995 5.63061 15.0817 5.63061 13.9546C5.63061 12.8277 4.69314 11.9102 3.54131 11.9102C2.38933 11.9103 1.45154 12.8275 1.45154 13.9546V13.9546ZM2.77296 13.9546C2.77296 13.5402 3.11785 13.2029 3.54131 13.2029C3.96478 13.2029 4.3095 13.5402 4.3095 13.9546C4.3095 14.3695 3.96477 14.7068 3.54131 14.7068C3.11785 14.7068 2.77296 14.3696 2.77296 13.9546Z" fill="#0BC15C"/>
<path d="M13.7347 5.04688H20V5.79268H13.7347V5.04688Z" fill="#0BC15C"/>
<path d="M16.1003 8.54988V8.16872L13.3079 8.16856V6.58944H16.1003V6.20812H13.3079V4.62885H16.0625C15.9565 4.26679 15.6193 4 15.2157 4H7.4727C6.98366 4 6.58745 4.38754 6.58745 4.86563V10.9751H6.02262L6.02247 5.51564H1.05715C1.05715 5.51564 0 9.48441 0 9.79699V12.9241H0.683113C1.1131 11.7869 2.22775 10.9738 3.53937 10.9738C4.85131 10.9738 5.96644 11.7867 6.39611 12.9241H9.77755C10.2074 11.7869 11.3217 10.9738 12.6337 10.9738C13.9309 10.9738 15.0361 11.7676 15.476 12.8854C15.8375 12.7762 16.0998 12.4471 16.0998 12.058V10.1294H13.3078V8.55013L16.1003 8.54988ZM5.11297 9.00279H1.27813L1.86839 6.54938H5.11297V9.00279Z" fill="#0BC15C"/>
<path d="M13.7347 7.00391H18.8997V7.74971H13.7347V7.00391Z" fill="#0BC15C"/>
<path d="M13.7347 8.96094H17.5449V9.70674H13.7347V8.96094Z" fill="#0BC15C"/>
</svg>
