<svg width="20" height="20" viewBox="0 0 20 20" fill="none" xmlns="http://www.w3.org/2000/svg">
<path d="M17.9969 8.91429L17.6815 3.7927V3.79286C17.6578 3.40959 17.4948 3.04813 17.2232 2.77654C16.9516 2.50494 16.5902 2.34198 16.2069 2.31825L11.0857 2.00284C10.6349 1.97576 10.1943 2.14334 9.87551 2.46321L2.46086 9.87786C2.16568 10.1732 2 10.5735 2 10.991C2 11.4084 2.16567 11.8089 2.46086 12.1041L7.89808 17.5413C8.19326 17.8365 8.59375 18.0021 9.01109 18.0021C9.4286 18.0021 9.82894 17.8365 10.1243 17.5413L17.5389 10.1242C17.8578 9.80494 18.0246 9.36448 17.9971 8.91398L17.9969 8.91429ZM14.2775 8.59633H14.2773C13.8963 8.97737 13.3793 9.19164 12.8405 9.19164C12.3016 9.19164 11.7846 8.97754 11.4034 8.59633C11.0224 8.21529 10.8083 7.69835 10.8083 7.15948C10.8083 6.62041 11.0224 6.10364 11.4034 5.72247C11.7846 5.34142 12.3015 5.12732 12.8405 5.12732C13.3794 5.12732 13.8963 5.34142 14.2773 5.72263C14.6587 6.10351 14.8729 6.62045 14.8729 7.15948C14.8729 7.69839 14.6586 8.21532 14.2773 8.59633H14.2775Z" fill="#F27A1A"/>
</svg>
